<svg width="16" height="16" viewBox="0 0 16 16" fill="none" xmlns="http://www.w3.org/2000/svg">
<g clip-path="url(#clip0_33286_30708)">
<path d="M8 16C12.4183 16 16 12.4183 16 8C16 3.58172 12.4183 0 8 0C3.58172 0 0 3.58172 0 8C0 12.4183 3.58172 16 8 16Z" fill="black"/>
<path d="M8.84164 3.80798H5.27044C5.17689 3.8089 5.08736 3.8462 5.02084 3.91198L3.31044 5.62238C3.28747 5.64741 3.27216 5.67849 3.26632 5.71195C3.26048 5.74541 3.26435 5.77984 3.27749 5.81117C3.29063 5.84249 3.31247 5.86939 3.34043 5.88868C3.36839 5.90797 3.40129 5.91883 3.43524 5.91998H8.84164V3.80798Z" fill="url(#paint0_linear_33286_30708)"/>
<path d="M8.84161 6.97919H3.43521C3.39998 6.97918 3.36555 6.98965 3.33628 7.00926C3.30702 7.02888 3.28425 7.05675 3.27087 7.08934C3.2575 7.12193 3.25411 7.15776 3.26115 7.19228C3.26819 7.2268 3.28534 7.25844 3.31041 7.28319L5.02081 8.99199C5.08695 9.05835 5.17672 9.09576 5.27041 9.09599H8.84161V6.97919Z" fill="url(#paint1_linear_33286_30708)"/>
<path d="M8.84158 10.192H5.27038C5.17669 10.1922 5.08692 10.2297 5.02078 10.296L3.31038 12C3.28506 12.0245 3.26769 12.0561 3.26052 12.0906C3.25335 12.1251 3.2567 12.161 3.27015 12.1936C3.28359 12.2262 3.30651 12.254 3.33594 12.2734C3.36536 12.2928 3.39994 12.3029 3.43518 12.3024H8.84158V10.192Z" fill="url(#paint2_linear_33286_30708)"/>
<path d="M11.52 9.5136C11.4171 8.71777 11.196 7.94176 10.864 7.2112C10.8306 7.08313 10.7598 6.96786 10.6608 6.88C10.584 7.5904 10.1424 8.04 9.62402 8.4224V9.84961C9.7283 9.87967 9.82439 9.93303 9.90505 10.0056C9.9857 10.0783 10.0488 10.1682 10.0896 10.2688C10.2908 10.6446 10.3411 11.0828 10.2304 11.4944C10.2019 11.6356 10.1292 11.764 10.0227 11.8609C9.91625 11.9579 9.78163 12.0184 9.63842 12.0336H9.62402V12.1232C10.4576 12.0848 11.0992 11.7552 11.4208 10.9424C11.6032 10.4752 11.5744 9.9856 11.52 9.5136Z" fill="#00FDA3"/>
<path d="M12.4144 7.15518C12.3522 7.11389 12.2814 7.08737 12.2073 7.07767C12.1333 7.06796 12.058 7.07532 11.9872 7.09918C11.8481 7.16119 11.7249 7.25423 11.6272 7.37118C11.736 5.39358 10.6176 4.17118 9.86725 3.80798C10.0182 4.56317 9.99961 5.34245 9.81285 6.08958C9.76165 6.31518 9.64165 6.53438 9.63205 6.75838C9.63205 6.85438 9.63205 6.95038 9.62245 7.04638V8.41438C10.1408 8.03198 10.5824 7.58238 10.6592 6.87198C10.7608 6.96155 10.8328 7.07983 10.8656 7.21118C11.1971 7.94182 11.4177 8.71784 11.52 9.51358C11.5712 9.98558 11.6 10.4736 11.4176 10.9376C11.0976 11.7504 10.4576 12.08 9.62085 12.1184V12.2128L9.76325 12.2032C10.8992 12.1104 11.8208 11.5936 12.1632 10.3712C12.3568 9.67678 12.3232 8.97278 12.2352 8.26718C12.1952 7.88318 12.1328 7.49118 12.4144 7.15518Z" fill="#03DEFB"/>
<path d="M10.0896 10.2608C10.0488 10.1603 9.9857 10.0703 9.90505 9.99765C9.82439 9.92504 9.7283 9.87168 9.62402 9.84161C9.62402 10.448 9.62402 11.056 9.62402 11.664V12.0288C9.7693 12.0137 9.90611 11.9531 10.015 11.8557C10.1238 11.7583 10.1992 11.6291 10.2304 11.4864C10.3411 11.0748 10.2908 10.6366 10.0896 10.2608Z" fill="#DC1FFF"/>
</g>
<defs>
<linearGradient id="paint0_linear_33286_30708" x1="8.98724" y1="3.79678" x2="1.59364" y2="7.79838" gradientUnits="userSpaceOnUse">
<stop stop-color="#21B1A5"/>
<stop offset="1" stop-color="#5E79D3"/>
</linearGradient>
<linearGradient id="paint1_linear_33286_30708" x1="3.88001" y1="9.21759" x2="8.81761" y2="6.61119" gradientUnits="userSpaceOnUse">
<stop stop-color="#6A6EDC"/>
<stop offset="1" stop-color="#3D98BA"/>
</linearGradient>
<linearGradient id="paint2_linear_33286_30708" x1="8.80478" y1="10.1344" x2="3.74878" y2="13.2704" gradientUnits="userSpaceOnUse">
<stop stop-color="#577ECC"/>
<stop offset="1" stop-color="#9646FD"/>
</linearGradient>
<clipPath id="clip0_33286_30708">
<rect width="16" height="16" fill="white"/>
</clipPath>
</defs>
</svg>
