<svg width="22" height="22" viewBox="0 0 22 22" fill="none" xmlns="http://www.w3.org/2000/svg">
<g clip-path="url(#clip0_453_566)">
<path d="M18.3232 17.5047C18.3232 18.2225 18.0557 18.8518 17.6264 19.3344C17.6213 19.3401 17.6178 19.347 17.6163 19.3545C17.6098 19.3853 17.6374 19.4125 17.668 19.405C18.906 19.0999 19.907 18.0424 19.907 16.6538V9.45485C19.907 7.32679 18.7183 5.36037 16.7888 4.29634L8.99782 0L7.45447 0.873256L15.205 5.14727C17.1345 6.21131 18.3232 8.17772 18.3232 10.3058V17.5047Z" fill="url(#paint0_linear_453_566)"/>
<path d="M18.3232 17.5047C18.3232 18.2225 18.0557 18.8518 17.6264 19.3344C17.6213 19.3401 17.6178 19.347 17.6163 19.3545C17.6098 19.3853 17.6374 19.4125 17.668 19.405C18.906 19.0999 19.907 18.0424 19.907 16.6538V9.45485C19.907 7.32679 18.7183 5.36037 16.7888 4.29634L8.99782 0L7.45447 0.873256L15.205 5.14727C17.1345 6.21131 18.3232 8.17772 18.3232 10.3058V17.5047Z" fill="url(#paint1_linear_453_566)"/>
<path d="M18.3232 17.5047C18.3232 18.2225 18.0557 18.8518 17.6264 19.3344C17.6213 19.3401 17.6178 19.347 17.6163 19.3545C17.6098 19.3853 17.6374 19.4125 17.668 19.405C18.906 19.0999 19.907 18.0424 19.907 16.6538V9.45485C19.907 7.32679 18.7183 5.36037 16.7888 4.29634L8.99782 0L7.45447 0.873256L15.205 5.14727C17.1345 6.21131 18.3232 8.17772 18.3232 10.3058V17.5047Z" fill="url(#paint2_radial_453_566)" fill-opacity="0.2"/>
<path d="M18.3232 17.5047C18.3232 18.2225 18.0557 18.8518 17.6264 19.3344C17.6213 19.3401 17.6178 19.347 17.6163 19.3545C17.6098 19.3853 17.6374 19.4125 17.668 19.405C18.906 19.0999 19.907 18.0424 19.907 16.6538V9.45485C19.907 7.32679 18.7183 5.36037 16.7888 4.29634L8.99782 0L7.45447 0.873256L15.205 5.14727C17.1345 6.21131 18.3232 8.17772 18.3232 10.3058V17.5047Z" fill="url(#paint3_radial_453_566)" fill-opacity="0.1"/>
<path d="M18.3232 17.5047C18.3232 18.2225 18.0557 18.8518 17.6264 19.3344C17.6213 19.3401 17.6178 19.347 17.6163 19.3545C17.6098 19.3853 17.6374 19.4125 17.668 19.405C18.906 19.0999 19.907 18.0424 19.907 16.6538V9.45485C19.907 7.32679 18.7183 5.36037 16.7888 4.29634L8.99782 0L7.45447 0.873256L15.205 5.14727C17.1345 6.21131 18.3232 8.17772 18.3232 10.3058V17.5047Z" fill="url(#paint4_linear_453_566)" fill-opacity="0.2"/>
<path d="M16.1455 18.7339V11.5349C16.1455 9.40685 14.9568 7.44043 13.0273 6.3764L5.27673 2.10238L6.82008 1.22913L14.6111 5.52547C16.5407 6.5895 17.7293 8.55591 17.7293 10.684V17.8829C17.7293 19.2716 16.7284 20.329 15.4904 20.6341C15.4598 20.6416 15.4321 20.6145 15.4386 20.5836C15.4402 20.5761 15.4437 20.5692 15.4487 20.5635C15.8781 20.0809 16.1455 19.4516 16.1455 18.7339Z" fill="url(#paint5_linear_453_566)"/>
<path d="M16.1455 18.7339V11.5349C16.1455 9.40685 14.9568 7.44043 13.0273 6.3764L5.27673 2.10238L6.82008 1.22913L14.6111 5.52547C16.5407 6.5895 17.7293 8.55591 17.7293 10.684V17.8829C17.7293 19.2716 16.7284 20.329 15.4904 20.6341C15.4598 20.6416 15.4321 20.6145 15.4386 20.5836C15.4402 20.5761 15.4437 20.5692 15.4487 20.5635C15.8781 20.0809 16.1455 19.4516 16.1455 18.7339Z" fill="url(#paint6_linear_453_566)"/>
<path d="M16.1455 18.7339V11.5349C16.1455 9.40685 14.9568 7.44043 13.0273 6.3764L5.27673 2.10238L6.82008 1.22913L14.6111 5.52547C16.5407 6.5895 17.7293 8.55591 17.7293 10.684V17.8829C17.7293 19.2716 16.7284 20.329 15.4904 20.6341C15.4598 20.6416 15.4321 20.6145 15.4386 20.5836C15.4402 20.5761 15.4437 20.5692 15.4487 20.5635C15.8781 20.0809 16.1455 19.4516 16.1455 18.7339Z" fill="url(#paint7_radial_453_566)" fill-opacity="0.2"/>
<path d="M16.1455 18.7339V11.5349C16.1455 9.40685 14.9568 7.44043 13.0273 6.3764L5.27673 2.10238L6.82008 1.22913L14.6111 5.52547C16.5407 6.5895 17.7293 8.55591 17.7293 10.684V17.8829C17.7293 19.2716 16.7284 20.329 15.4904 20.6341C15.4598 20.6416 15.4321 20.6145 15.4386 20.5836C15.4402 20.5761 15.4437 20.5692 15.4487 20.5635C15.8781 20.0809 16.1455 19.4516 16.1455 18.7339Z" fill="url(#paint8_radial_453_566)" fill-opacity="0.1"/>
<path d="M16.1455 18.7339V11.5349C16.1455 9.40685 14.9568 7.44043 13.0273 6.3764L5.27673 2.10238L6.82008 1.22913L14.6111 5.52547C16.5407 6.5895 17.7293 8.55591 17.7293 10.684V17.8829C17.7293 19.2716 16.7284 20.329 15.4904 20.6341C15.4598 20.6416 15.4321 20.6145 15.4386 20.5836C15.4402 20.5761 15.4437 20.5692 15.4487 20.5635C15.8781 20.0809 16.1455 19.4516 16.1455 18.7339Z" fill="url(#paint9_linear_453_566)" fill-opacity="0.2"/>
<path fill-rule="evenodd" clip-rule="evenodd" d="M3 3.39016L4.56346 2.50552L12.3545 6.80187C14.284 7.8659 15.4727 9.83231 15.4727 11.9604V19.1948L15.4725 19.1947C15.4459 21.3575 12.9872 22.7016 11.0182 21.6158L3.95691 17.7219L3 17.2078V3.39016ZM13.8888 12.8338V17.013L8.6424 14.1199V6.50164L10.7707 7.67527C12.7002 8.7393 13.8888 10.7057 13.8888 12.8338ZM6.66261 5.40989L7.45452 5.84659V14.7745L7.53766 14.8191L13.8888 18.3214V19.1299L6.67282 15.1507L6.66261 15.1565V5.40989ZM5.37575 4.70025V15.8432L5.41296 15.8635L5.37575 15.8846L13.8791 20.5737C13.808 20.9477 13.3613 21.1611 12.9979 20.9607L4.58383 16.3208V4.26355L5.37575 4.70025Z" fill="url(#paint10_linear_453_566)"/>
<path fill-rule="evenodd" clip-rule="evenodd" d="M3 3.39016L4.56346 2.50552L12.3545 6.80187C14.284 7.8659 15.4727 9.83231 15.4727 11.9604V19.1948L15.4725 19.1947C15.4459 21.3575 12.9872 22.7016 11.0182 21.6158L3.95691 17.7219L3 17.2078V3.39016ZM13.8888 12.8338V17.013L8.6424 14.1199V6.50164L10.7707 7.67527C12.7002 8.7393 13.8888 10.7057 13.8888 12.8338ZM6.66261 5.40989L7.45452 5.84659V14.7745L7.53766 14.8191L13.8888 18.3214V19.1299L6.67282 15.1507L6.66261 15.1565V5.40989ZM5.37575 4.70025V15.8432L5.41296 15.8635L5.37575 15.8846L13.8791 20.5737C13.808 20.9477 13.3613 21.1611 12.9979 20.9607L4.58383 16.3208V4.26355L5.37575 4.70025Z" fill="url(#paint11_linear_453_566)"/>
<path fill-rule="evenodd" clip-rule="evenodd" d="M3 3.39016L4.56346 2.50552L12.3545 6.80187C14.284 7.8659 15.4727 9.83231 15.4727 11.9604V19.1948L15.4725 19.1947C15.4459 21.3575 12.9872 22.7016 11.0182 21.6158L3.95691 17.7219L3 17.2078V3.39016ZM13.8888 12.8338V17.013L8.6424 14.1199V6.50164L10.7707 7.67527C12.7002 8.7393 13.8888 10.7057 13.8888 12.8338ZM6.66261 5.40989L7.45452 5.84659V14.7745L7.53766 14.8191L13.8888 18.3214V19.1299L6.67282 15.1507L6.66261 15.1565V5.40989ZM5.37575 4.70025V15.8432L5.41296 15.8635L5.37575 15.8846L13.8791 20.5737C13.808 20.9477 13.3613 21.1611 12.9979 20.9607L4.58383 16.3208V4.26355L5.37575 4.70025Z" fill="url(#paint12_radial_453_566)" fill-opacity="0.2"/>
<path fill-rule="evenodd" clip-rule="evenodd" d="M3 3.39016L4.56346 2.50552L12.3545 6.80187C14.284 7.8659 15.4727 9.83231 15.4727 11.9604V19.1948L15.4725 19.1947C15.4459 21.3575 12.9872 22.7016 11.0182 21.6158L3.95691 17.7219L3 17.2078V3.39016ZM13.8888 12.8338V17.013L8.6424 14.1199V6.50164L10.7707 7.67527C12.7002 8.7393 13.8888 10.7057 13.8888 12.8338ZM6.66261 5.40989L7.45452 5.84659V14.7745L7.53766 14.8191L13.8888 18.3214V19.1299L6.67282 15.1507L6.66261 15.1565V5.40989ZM5.37575 4.70025V15.8432L5.41296 15.8635L5.37575 15.8846L13.8791 20.5737C13.808 20.9477 13.3613 21.1611 12.9979 20.9607L4.58383 16.3208V4.26355L5.37575 4.70025Z" fill="url(#paint13_radial_453_566)" fill-opacity="0.1"/>
<path fill-rule="evenodd" clip-rule="evenodd" d="M3 3.39016L4.56346 2.50552L12.3545 6.80187C14.284 7.8659 15.4727 9.83231 15.4727 11.9604V19.1948L15.4725 19.1947C15.4459 21.3575 12.9872 22.7016 11.0182 21.6158L3.95691 17.7219L3 17.2078V3.39016ZM13.8888 12.8338V17.013L8.6424 14.1199V6.50164L10.7707 7.67527C12.7002 8.7393 13.8888 10.7057 13.8888 12.8338ZM6.66261 5.40989L7.45452 5.84659V14.7745L7.53766 14.8191L13.8888 18.3214V19.1299L6.67282 15.1507L6.66261 15.1565V5.40989ZM5.37575 4.70025V15.8432L5.41296 15.8635L5.37575 15.8846L13.8791 20.5737C13.808 20.9477 13.3613 21.1611 12.9979 20.9607L4.58383 16.3208V4.26355L5.37575 4.70025Z" fill="url(#paint14_linear_453_566)" fill-opacity="0.2"/>
</g>
<defs>
<linearGradient id="paint0_linear_453_566" x1="2.71842" y1="11" x2="19.7184" y2="9.48023" gradientUnits="userSpaceOnUse">
<stop stop-color="#FF3873"/>
<stop offset="0.473958" stop-color="#711EFF"/>
<stop offset="1" stop-color="#3FE5FF"/>
</linearGradient>
<linearGradient id="paint1_linear_453_566" x1="4.04784" y1="1.01249" x2="15.9165" y2="11.0954" gradientUnits="userSpaceOnUse">
<stop stop-color="#F6F063"/>
<stop offset="1" stop-color="#E07774" stop-opacity="0"/>
</linearGradient>
<radialGradient id="paint2_radial_453_566" cx="0" cy="0" r="1" gradientUnits="userSpaceOnUse" gradientTransform="translate(3.44569 7.73358) rotate(65.584) scale(4.92826 4.22916)">
<stop offset="0.925861" stop-color="white"/>
<stop offset="1" stop-color="white" stop-opacity="0"/>
</radialGradient>
<radialGradient id="paint3_radial_453_566" cx="0" cy="0" r="1" gradientUnits="userSpaceOnUse" gradientTransform="translate(5.90121 5.69334) rotate(59.0024) scale(3.12803 4.27217)">
<stop offset="0.0864251" stop-color="white"/>
<stop offset="0.94115" stop-color="white" stop-opacity="0"/>
</radialGradient>
<linearGradient id="paint4_linear_453_566" x1="4.93543" y1="6.11055" x2="13.7436" y2="9.22008" gradientUnits="userSpaceOnUse">
<stop stop-color="white"/>
<stop offset="1" stop-opacity="0"/>
</linearGradient>
<linearGradient id="paint5_linear_453_566" x1="2.71845" y1="11" x2="19.7185" y2="9.48023" gradientUnits="userSpaceOnUse">
<stop stop-color="#FF3873"/>
<stop offset="0.473958" stop-color="#711EFF"/>
<stop offset="1" stop-color="#3FE5FF"/>
</linearGradient>
<linearGradient id="paint6_linear_453_566" x1="4.04786" y1="1.01249" x2="15.9166" y2="11.0954" gradientUnits="userSpaceOnUse">
<stop stop-color="#F6F063"/>
<stop offset="1" stop-color="#E07774" stop-opacity="0"/>
</linearGradient>
<radialGradient id="paint7_radial_453_566" cx="0" cy="0" r="1" gradientUnits="userSpaceOnUse" gradientTransform="translate(3.44572 7.73358) rotate(65.584) scale(4.92826 4.22916)">
<stop offset="0.925861" stop-color="white"/>
<stop offset="1" stop-color="white" stop-opacity="0"/>
</radialGradient>
<radialGradient id="paint8_radial_453_566" cx="0" cy="0" r="1" gradientUnits="userSpaceOnUse" gradientTransform="translate(5.90123 5.69334) rotate(59.0024) scale(3.12803 4.27217)">
<stop offset="0.0864251" stop-color="white"/>
<stop offset="0.94115" stop-color="white" stop-opacity="0"/>
</radialGradient>
<linearGradient id="paint9_linear_453_566" x1="4.93545" y1="6.11055" x2="13.7437" y2="9.22008" gradientUnits="userSpaceOnUse">
<stop stop-color="white"/>
<stop offset="1" stop-opacity="0"/>
</linearGradient>
<linearGradient id="paint10_linear_453_566" x1="2.71848" y1="11" x2="19.7185" y2="9.48023" gradientUnits="userSpaceOnUse">
<stop stop-color="#FF3873"/>
<stop offset="0.473958" stop-color="#711EFF"/>
<stop offset="1" stop-color="#3FE5FF"/>
</linearGradient>
<linearGradient id="paint11_linear_453_566" x1="4.04789" y1="1.01249" x2="15.9166" y2="11.0954" gradientUnits="userSpaceOnUse">
<stop stop-color="#F6F063"/>
<stop offset="1" stop-color="#E07774" stop-opacity="0"/>
</linearGradient>
<radialGradient id="paint12_radial_453_566" cx="0" cy="0" r="1" gradientUnits="userSpaceOnUse" gradientTransform="translate(3.44575 7.73358) rotate(65.584) scale(4.92826 4.22916)">
<stop offset="0.925861" stop-color="white"/>
<stop offset="1" stop-color="white" stop-opacity="0"/>
</radialGradient>
<radialGradient id="paint13_radial_453_566" cx="0" cy="0" r="1" gradientUnits="userSpaceOnUse" gradientTransform="translate(5.90126 5.69334) rotate(59.0024) scale(3.12803 4.27217)">
<stop offset="0.0864251" stop-color="white"/>
<stop offset="0.94115" stop-color="white" stop-opacity="0"/>
</radialGradient>
<linearGradient id="paint14_linear_453_566" x1="4.93548" y1="6.11055" x2="13.7437" y2="9.22008" gradientUnits="userSpaceOnUse">
<stop stop-color="white"/>
<stop offset="1" stop-opacity="0"/>
</linearGradient>
<clipPath id="clip0_453_566">
<rect width="22" height="22" fill="white"/>
</clipPath>
</defs>
</svg>
