<svg width="53" height="94" viewBox="0 0 53 94" fill="none" xmlns="http://www.w3.org/2000/svg">
<g clip-path="url(#clip0_2030_152)">
<path d="M34.8474 17.5206C32.4925 15.3389 29.3762 14.1675 26.1673 14.2578C22.9584 14.3481 19.9129 15.693 17.6845 18.0038C15.4562 20.3145 14.2227 23.4068 14.2488 26.6169C14.275 29.8269 15.5587 32.8987 17.8245 35.1728L37.9524 55.3042C39.5168 56.8573 40.745 58.7157 41.5604 60.7638C42.3759 62.8119 42.7611 65.0059 42.6922 67.2093C42.4547 76.051 35.0311 83.1174 26.1981 82.9562C17.4327 82.7932 10.3021 75.5292 10.3021 66.7603C10.3016 63.1431 11.5125 59.6299 13.7417 56.7813L11.4775 54.5119C9.10912 57.4184 7.63464 60.9495 7.23276 64.6771C6.83089 68.4048 7.51888 72.169 9.21334 75.5135C10.9078 78.858 13.536 81.6393 16.7794 83.5201C20.0227 85.4009 23.742 86.3006 27.4865 86.1102C31.2309 85.9197 34.8397 84.6472 37.8754 82.4469C40.9112 80.2466 43.2436 77.2131 44.5899 73.7138C45.9362 70.2146 46.2386 66.4001 45.4605 62.7324C44.6824 59.0648 42.8572 55.7016 40.2061 53.0504L20.0782 32.9225C18.3771 31.2402 17.4088 28.9544 17.3838 26.5621C17.3587 24.1697 18.279 21.8642 19.9444 20.1466C21.6099 18.429 23.8861 17.4383 26.278 17.3897C28.67 17.341 30.9845 18.2385 32.7184 19.887C33.6204 20.7369 34.3396 21.7617 34.832 22.8989C35.3244 24.0361 35.5798 25.2618 35.5824 26.501C35.5847 28.2306 35.0887 29.9243 34.1539 31.3795L36.4458 33.6714C37.9618 31.5884 38.7727 29.0755 38.7603 26.4993C38.7572 24.8146 38.4083 23.1484 37.7353 21.604C37.0622 20.0596 36.0793 18.6697 34.8474 17.5206Z" fill="#313131"/>
<path d="M27.8897 65.3594C28.0882 65.5377 28.2483 65.7545 28.3602 65.9967C28.4722 66.2389 28.5336 66.5014 28.5407 66.7681C28.5479 67.0348 28.5006 67.3002 28.4018 67.5481C28.3031 67.7959 28.1548 68.0211 27.9661 68.2097C27.7775 68.3984 27.5523 68.5466 27.3045 68.6454C27.0566 68.7442 26.7913 68.7915 26.5245 68.7843C26.2578 68.7772 25.9953 68.7158 25.7531 68.6038C25.5109 68.4919 25.2941 68.3318 25.1158 68.1333L21.7508 64.77C21.4641 65.4558 21.3304 66.196 21.3589 66.9388C21.4126 68.2303 21.9479 69.455 22.8596 70.3714C23.7712 71.2879 24.993 71.8297 26.2843 71.8901C27.3197 71.9326 28.3438 71.6619 29.2228 71.1132C30.1019 70.5645 30.795 69.7634 31.2117 68.8146C31.6283 67.8658 31.7491 66.8134 31.5582 65.7949C31.3673 64.7764 30.8736 63.8392 30.1417 63.1056L10.0138 42.9847C4.53542 37.5063 2.1863 29.9232 3.57151 22.1806C5.22543 12.9402 12.5224 5.49928 21.7334 3.66159C28.7201 2.27466 35.8386 4.01873 41.2632 8.46732C43.656 10.4236 45.6357 12.8364 47.0868 15.5653C48.5379 18.2942 49.4315 21.2845 49.7155 24.3622C49.9995 27.4398 49.6682 30.5432 48.7409 33.4916C47.8136 36.4399 46.3089 39.1743 44.3145 41.5353L46.5769 43.7891C49.9355 39.8812 52.0824 35.0791 52.755 29.9703C53.4276 24.8615 52.5966 19.6674 50.3638 15.0234C48.131 10.3794 44.5932 6.48679 40.183 3.82172C35.7728 1.15664 30.6815 -0.165362 25.5319 0.0174205C11.8498 0.506315 0.646805 11.5949 0.0278856 25.2614C-0.15916 28.9475 0.432924 32.6316 1.76552 36.0735C3.09812 39.5153 5.14129 42.6376 7.76178 45.2367L27.8897 65.3594Z" fill="#313131"/>
<path d="M45.2491 48.0314L45.1866 47.9673L45.1398 47.9153L25.1108 27.8897C24.8359 27.6149 24.6487 27.2649 24.5727 26.8838C24.4967 26.5027 24.5353 26.1076 24.6837 25.7484C24.8321 25.3893 25.0836 25.0822 25.4065 24.8659C25.7294 24.6496 26.1091 24.5339 26.4977 24.5333C26.7556 24.5328 27.011 24.5837 27.2491 24.6828C27.4872 24.7819 27.7032 24.9273 27.8846 25.1106L31.2497 28.4739C31.6071 27.6125 31.7239 26.6702 31.5876 25.7477C31.4513 24.8251 31.067 23.9569 30.4757 23.2357C29.8844 22.5145 29.1083 21.9674 28.2303 21.6529C27.3524 21.3384 26.4055 21.2683 25.4908 21.45C24.576 21.6317 23.7278 22.0584 23.0367 22.6846C22.3456 23.3108 21.8375 24.1129 21.5667 25.0053C21.296 25.8977 21.2727 26.8469 21.4993 27.7516C21.7259 28.6562 22.194 29.4823 22.8535 30.1417L42.9849 50.2765C48.465 55.7549 50.8141 63.3397 49.4272 71.0806C47.7733 80.321 40.4728 87.7619 31.2618 89.5979C24.2751 90.9848 17.1567 89.2373 11.7355 84.7887C9.34219 82.8327 7.36214 80.42 5.91078 77.691C4.45942 74.962 3.56577 71.9715 3.28194 68.8936C2.9981 65.8158 3.32975 62.7122 4.25755 59.7639C5.18535 56.8155 6.69074 54.0813 8.68598 51.7207L6.42354 49.4565C3.64894 52.6763 1.68949 56.5162 0.710541 60.6523C-0.268413 64.7884 -0.238155 69.0993 0.79876 73.2212C1.83568 77.3432 3.84883 81.1552 6.66835 84.3357C9.48788 87.5163 13.0311 89.972 16.9989 91.4956C20.9668 93.0193 25.2429 93.5662 29.4666 93.0903C33.6902 92.6143 37.7374 91.1294 41.2666 88.7609C44.7959 86.3923 47.7036 83.2097 49.7446 79.4814C51.7856 75.7531 52.8998 71.5886 52.9934 67.3393C53.0833 63.7838 52.451 60.2471 51.1348 56.943C49.8186 53.6389 47.8458 50.6361 45.3357 48.1164L45.2491 48.0314Z" fill="#313131"/>
<path d="M39.8493 12.4566C36.1447 9.00066 31.2341 7.13286 26.1693 7.25328C21.1044 7.37371 16.2881 9.4728 12.7521 13.1009C9.21597 16.729 7.2413 21.5976 7.25101 26.6639C7.26072 31.7302 9.25405 36.5912 12.804 40.2057L32.9233 60.3319C34.6252 62.0139 35.5943 64.2997 35.6199 66.6923C35.6456 69.085 34.7256 71.3911 33.0601 73.1091C31.3946 74.8272 29.1183 75.8183 26.7259 75.867C24.3336 75.9156 22.0188 75.018 20.2848 73.3691C19.3824 72.5192 18.6628 71.4941 18.1701 70.3566C17.6773 69.2191 17.4218 67.993 17.4191 66.7534C17.4144 65.0239 17.9079 63.3296 18.8407 61.8731L16.5487 59.5829C15.4156 61.1574 14.6721 62.9783 14.3793 64.896C14.0865 66.8136 14.2529 68.7734 14.8646 70.6143C15.4763 72.4552 16.516 74.1247 17.8983 75.4858C19.2806 76.8468 20.9661 77.8605 22.8162 78.4436C24.6664 79.0268 26.6285 79.1627 28.5414 78.8402C30.4543 78.5178 32.2634 77.7461 33.8202 76.5887C35.3769 75.4312 36.6369 73.921 37.4966 72.182C38.3563 70.4431 38.7913 68.5249 38.7657 66.5852C38.7293 63.8582 37.6943 61.1294 35.8514 58.9033L35.158 58.0608L15.0474 37.9502C13.4827 36.397 12.2545 34.5383 11.4393 32.4898C10.6242 30.4414 10.2395 28.247 10.3093 26.0434C10.5485 17.2017 17.9548 10.1508 26.8069 10.2999C35.5706 10.4733 42.6994 17.7287 42.6994 26.4959C42.6987 30.1129 41.4879 33.6256 39.2598 36.4749L41.5223 38.739C44.611 34.9547 46.155 30.1427 45.8448 25.2677C45.5345 20.3928 43.3929 15.8153 39.8493 12.4531V12.4566Z" fill="#313131"/>
</g>
<defs>
<clipPath id="clip0_2030_152">
<rect width="53" height="93.2541" fill="white"/>
</clipPath>
</defs>
</svg>
